<svg version="1.0" xmlns="http://www.w3.org/2000/svg" width="122.000000pt" height="122.000000pt" viewBox="0 0 122.000000 122.000000" preserveAspectRatio="xMidYMid meet">
                                <g transform="translate(0.000000,122.000000) scale(0.100000,-0.100000)" stroke="none">
                                    <path d="M550 1214 c-157 -23 -273 -77 -367 -172 -176 -176 -229 -428 -137
                    -657 37 -91 53 -105 122 -105 32 0 63 5 70 12 8 8 12 64 12 186 0 100 4 181
                    10 193 9 16 22 19 83 19 44 0 78 -5 85 -12 8 -8 12 -64 12 -186 l0 -173 23 7
                    c47 14 47 15 47 245 0 256 -3 249 94 249 96 0 96 1 96 -227 0 -187 0 -191 20
                    -186 46 12 50 32 50 283 0 170 3 239 12 248 19 19 143 16 159 -5 10 -12 15
                    -65 19 -204 l5 -188 68 57 c95 80 147 146 147 186 0 42 -47 135 -105 209 -121
                    153 -344 247 -525 221z"></path>
                                    <path d="M1181 615 c-40 -59 -187 -193 -275 -250 -153 -100 -337 -174 -539
                    -216 -121 -25 -123 -31 -30 -75 85 -40 140 -54 238 -60 174 -12 331 50 462
                    182 111 112 180 275 171 406 l-3 48 -24 -35z"></path>
                                </g>
                            </svg>